PathFileType	4	(X/Y/Z)	C:\Users\Basilio\Documents\Thesis Gigler\squatting_fais\c3dfiles\040\SJ_pre5\markers_experimental.trc
DataRate	CameraRate	NumFrames	NumMarkers	Units	OrigDataRate	OrigDataStartFrame	OrigNumFrames
200.000000	200.000000	4	62	mm	200.000000	0	1165
Frame#	Time	FHD			LBHD			RBHD			C7			T10			CLAV			LSHO			LUUPA			LMUPA			LDUPA			LLEP			LMEP			LRAD			LUL			LRFIN			RSHO			RUPA1			RMUPA			RDUPA			RLEP			RMEP			RRAD			RUL			RUFIN			LASI			RASI			USACR			LSACR			RSACR			LTHI1			LTHI2			LTHI3			LTHI4			LLFC			LMFC			LTIB1			LTIB2			LTIB3			LTIB4			LLMAL			LMMAL			LHEE			LMT1			LMT2			LMT5			RTHI			RTHI2			RTHI3			RTHI4			RLFC			RMFC			RTIB1			RTIB2			RTIB3			RTIB4			RLMAL			RMMAL			RHEE			RMT1			RMT2			RMT5			*61			
		X1	Y1	Z1	X2	Y2	Z2	X3	Y3	Z3	X4	Y4	Z4	X5	Y5	Z5	X6	Y6	Z6	X7	Y7	Z7	X8	Y8	Z8	X9	Y9	Z9	X10	Y10	Z10	X11	Y11	Z11	X12	Y12	Z12	X13	Y13	Z13	X14	Y14	Z14	X15	Y15	Z15	X16	Y16	Z16	X17	Y17	Z17	X18	Y18	Z18	X19	Y19	Z19	X20	Y20	Z20	X21	Y21	Z21	X22	Y22	Z22	X23	Y23	Z23	X24	Y24	Z24	X25	Y25	Z25	X26	Y26	Z26	X27	Y27	Z27	X28	Y28	Z28	X29	Y29	Z29	X30	Y30	Z30	X31	Y31	Z31	X32	Y32	Z32	X33	Y33	Z33	X34	Y34	Z34	X35	Y35	Z35	X36	Y36	Z36	X37	Y37	Z37	X38	Y38	Z38	X39	Y39	Z39	X40	Y40	Z40	X41	Y41	Z41	X42	Y42	Z42	X43	Y43	Z43	X44	Y44	Z44	X45	Y45	Z45	X46	Y46	Z46	X47	Y47	Z47	X48	Y48	Z48	X49	Y49	Z49	X50	Y50	Z50	X51	Y51	Z51	X52	Y52	Z52	X53	Y53	Z53	X54	Y54	Z54	X55	Y55	Z55	X56	Y56	Z56	X57	Y57	Z57	X58	Y58	Z58	X59	Y59	Z59	X60	Y60	Z60	X61	Y61	Z61	X62	Y62	Z62	

1	0	-138.6988067626953	1718.34033203125	-931.5202636718752	-273.8901672363282	1692.138916015625	-960.1347656250002	-319.8209228515626	1662.5068359375	-823.228454589844	-366.9729919433594	1552.891235351563	-882.5405883789065	-453.160858154297	1236.3701171875	-878.8488769531252	-259.4528808593751	1454.555053710938	-873.8513793945315	-282.1000061035157	1510.31787109375	-1049.692993164063	-351.1549682617188	1386.487426757813	-1207.277709960938	-342.7074890136719	1338.044921875	-1199.45166015625	-376.4264526367188	1337.0595703125	-1249.71923828125	-408.2983398437501	1293.163330078125	-1291.679321289063	-476.5491333007814	1298.400146484375	-1256.014526367188	-427.3990173339845	1067.02294921875	-1106.799560546875	-373.6362304687501	1037.620727539063	-1151.304077148438	-381.3324890136719	1077.050415039063	-1060.124389648438	-302.5327758789063	1495.99169921875	-702.1491699218751	-425.8156738281251	1410.114013671875	-557.4070434570314	-409.5544433593751	1364.050903320313	-548.0236206054689	-458.0811157226564	1367.669189453125	-512.1904296875001	-479.086395263672	1309.842651367188	-473.5965270996095	-542.3919677734376	1297.704833984375	-529.8619995117189	-415.252410888672	1092.248168945313	-648.0103759765626	-380.1680908203126	1060.3173828125	-586.9167480468751	-359.0211791992188	1094.265991210938	-687.4470214843751	-294.6068725585938	1035.54736328125	-971.9901123046877	-305.3634033203126	1032.69921875	-750.5256347656251	-480.4719543457032	1101.446533203125	-870.100769042969	-488.5333251953126	1072.4853515625	-897.4319458007815	-496.108123779297	1072.716064453125	-843.0604248046877	-427.7904357910157	803.6668090820315	-1071.385620117188	-388.7667236328126	731.0797119140626	-1090.8134765625	-342.3486633300782	735.8828125000001	-1092.044677734375	-409.8160400390626	675.8213500976564	-1084.867919921875	-387.2206420898439	544.5875854492189	-1099.032104492188	-383.2952880859376	500.7274169921876	-973.6918945312502	-349.2707214355469	317.4831848144532	-1101.71142578125	-420.4468688964845	285.4551696777344	-1144.234008789063	-377.7671203613282	276.9157104492188	-1134.3525390625	-365.0662536621094	193.6338043212891	-1112.869995117188	-428.4404602050782	101.8209304809571	-1140.529296875	-389.5332641601564	107.1765670776367	-1058.8984375	-479.438690185547	43.00920867919923	-1097.081176757813	-253.8957672119141	58.7571487426758	-1098.027099609375	-262.3269348144532	58.28800582885744	-1144.216674804688	-312.0411071777344	31.05544471740723	-1188.020751953125	-397.1526794433595	794.054626464844	-653.6908569335939	-364.0882873535157	736.9868774414064	-643.6379394531251	-331.0411071777344	736.0383300781251	-647.3361206054689	-395.2860717773439	658.7490844726564	-652.2396240234376	-389.2209472656251	525.9298706054689	-643.5770874023439	-369.4867248535157	499.8706359863282	-772.7246704101565	-351.0394592285157	336.4860229492188	-634.9197387695314	-430.4617919921876	268.9992980957032	-610.9524536132814	-384.9726867675782	260.5806579589844	-612.1010131835939	-368.9004821777344	209.3252258300782	-638.0702514648439	-432.7120971679689	101.9256134033203	-610.1738281250001	-400.4118652343751	104.093002319336	-694.3334350585939	-483.9838256835939	47.6899757385254	-669.4343261718751	-262.4832153320313	55.10040664672853	-632.1625976562501	-275.0550231933594	58.50289916992189	-595.0651855468751	-325.3282470703126	33.76057434082032	-550.1684570312501	nan	nan	nan	
2	0.005	-139.4697570800782	1718.994750976563	-931.7877197265627	-274.4974365234376	1692.223022460938	-960.0295410156252	-320.0466308593751	1662.480590820313	-823.122009277344	-367.1329956054688	1552.920288085938	-882.3834228515627	-453.1277465820314	1236.332641601563	-878.561218261719	-259.4435424804688	1454.640991210938	-873.772888183594	-282.4236145019532	1509.81396484375	-1049.632934570313	-351.4215393066407	1386.2353515625	-1207.113891601563	-342.9075622558594	1337.819702148438	-1199.28173828125	-376.7050781250001	1336.839111328125	-1249.498291015625	-408.503875732422	1292.929321289063	-1291.468505859375	-476.7378234863282	1298.094848632813	-1255.732788085938	-427.6490783691407	1066.844360351563	-1106.601318359375	-373.8149108886719	1037.3876953125	-1151.122924804688	-381.5758056640626	1076.88134765625	-1059.976928710938	-302.4464721679688	1495.982788085938	-701.9767456054689	-425.7588806152345	1410.038330078125	-557.2255249023439	-409.2461853027345	1364.287353515625	-547.6842041015626	-457.4980773925782	1367.724365234375	-511.7327880859376	-478.8379516601564	1309.313354492188	-472.6662597656251	-542.1438598632814	1297.50146484375	-529.6095581054689	-414.9393615722657	1091.962524414063	-647.7366943359376	-379.8088684082032	1060.089477539063	-586.6316528320314	-358.4350280761719	1093.853271484375	-687.1033935546876	-294.5989990234376	1035.599487304688	-971.9326782226565	-305.2086791992188	1032.634887695313	-750.3549804687501	-480.4011230468751	1101.336181640625	-869.7768554687502	-488.6035461425782	1072.421020507813	-897.0738525390627	-496.0285949707032	1072.670532226563	-842.6857910156252	-427.9941711425782	803.483581542969	-1071.048950195313	-389.0074768066407	730.9479980468751	-1090.693481445313	-342.4899902343751	735.8051757812501	-1092.01904296875	-409.9038696289064	675.5971069335939	-1084.5732421875	-387.0519409179689	544.5048217773439	-1098.84912109375	-383.0487670898438	500.7252502441407	-973.456726074219	-349.1438903808594	317.4985961914063	-1101.552978515625	-420.3248596191407	285.4577636718751	-1144.037841796875	-377.5913391113282	276.8781738281251	-1134.230712890625	-364.9807739257813	193.5720520019532	-1112.768676757813	-427.8003540039064	101.3482208251953	-1140.410522460938	-389.4956054687501	107.1491851806641	-1058.800048828125	-479.4429626464845	43.04977416992188	-1097.0361328125	-255.6595001220704	59.3434524536133	-1098	-262.5031738281251	57.61523818969728	-1144.316162109375	-312.0383300781251	31.10845947265626	-1188.008911132813	-397.0387268066407	794.2961425781252	-653.5317993164064	-363.9956054687501	737.1004638671876	-643.7233886718751	-331.1538696289063	735.9874877929689	-647.6121215820314	-395.6885681152345	658.9215698242189	-651.9874267578126	-389.7959899902345	526.0911254882814	-643.4466552734376	-370.6006774902344	499.8964843750001	-772.639831542969	-351.4524536132813	336.5700378417969	-634.8892822265626	-430.5671997070314	269.0012207031251	-610.7852783203126	-385.2258300781251	260.7116699218751	-611.9823608398439	-369.0713195800782	209.4907989501954	-638.0604248046876	-432.7160644531251	101.9523544311524	-610.1206054687501	-400.5076904296876	104.0802383422852	-694.3216552734376	-483.9631652832032	47.66889190673829	-669.4104614257814	-262.4934082031251	55.11983489990236	-632.1605224609376	-275.0539550781251	58.46919631958009	-595.1145019531251	-325.2810363769532	33.77015686035157	-550.1905517578126	nan	nan	nan	
3	0.01	-140.19189453125	1719.54541015625	-931.9698486328127	-275.1715393066407	1692.316772460938	-959.9754028320315	-320.2319030761719	1662.451049804688	-822.9978027343752	-367.2339172363282	1552.93212890625	-882.2432861328127	-453.0233764648439	1236.341430664063	-878.2830810546877	-259.4011840820313	1454.732299804688	-873.6822509765627	-282.5295715332032	1509.703002929688	-1049.620361328125	-351.7030944824219	1386.025634765625	-1206.901489257813	-343.1339111328126	1337.522338867188	-1199.070434570313	-376.9731445312501	1336.62744140625	-1249.247192382813	-408.7368774414064	1292.674194335938	-1291.21044921875	-476.9390563964845	1297.843505859375	-1255.483520507813	-427.9146423339845	1066.566162109375	-1106.327514648438	-373.9770812988282	1037.128051757813	-1150.947265625	-381.7368469238282	1076.699829101563	-1059.817626953125	-302.4104003906251	1495.968505859375	-701.8184814453126	-425.7149047851564	1409.970825195313	-557.0972290039064	-409.0913085937501	1364.2861328125	-547.4372558593751	-457.4088439941407	1367.658203125	-511.5462341308595	-478.5530700683595	1309.9697265625	-472.984344482422	-541.8960571289064	1297.251708984375	-529.3643798828126	-412.9901123046876	1091.654907226563	-646.7345581054689	-379.5673217773438	1059.9189453125	-586.3619384765626	-358.1806640625001	1093.756591796875	-686.8319702148439	-294.7396545410157	1035.6142578125	-971.7778320312502	-304.9973144531251	1032.578002929688	-750.1823730468751	-480.4089965820314	1101.338989257813	-869.472595214844	-489.0227355957032	1072.60498046875	-896.7886352539065	-496.1574707031251	1072.623901367188	-842.485534667969	-428.1711425781251	803.2568969726565	-1070.747314453125	-389.2008666992189	730.8097534179689	-1090.5576171875	-342.6577453613282	735.6559448242189	-1092.009521484375	-410.0094604492189	675.3945922851564	-1084.274658203125	-386.9022827148439	544.4706420898439	-1098.675659179688	-382.7481689453126	500.6356506347657	-973.2336425781252	-349.0561218261719	317.4679870605469	-1101.4287109375	-420.1747131347657	285.4425659179688	-1143.894653320313	-377.4866638183594	276.9270935058594	-1134.143188476563	-364.8734741210938	193.5789184570313	-1112.638671875	-427.7857360839845	101.393669128418	-1140.3583984375	-389.4327392578126	107.1048889160157	-1058.739501953125	-479.4164428710939	43.04705047607423	-1097.021484375	-255.6051483154297	59.3086280822754	-1097.965454101563	-262.5230102539063	57.58332824707033	-1144.32177734375	-312.0784912109376	31.11672973632813	-1187.962524414063	-396.8353576660157	794.508728027344	-653.3618164062501	-363.6654357910157	736.9641723632814	-643.6937255859376	-331.2466430664063	735.9650878906251	-647.8612670898439	-395.8712158203126	659.0831298828126	-651.7785034179689	-390.4319763183595	526.2763061523439	-643.2680053710939	-371.7810363769532	500.0847473144532	-772.6281738281252	-351.8400268554688	336.8309020996094	-634.9071044921876	-430.6644897460939	269.0712280273438	-610.5191040039064	-385.4849548339845	260.8067932128907	-611.8501586914064	-369.3860778808594	209.5452728271485	-637.9827270507814	-432.7341613769532	101.9439239501953	-610.0332031250001	-400.5738525390626	104.1193389892578	-694.2327270507814	-484.010711669922	47.68044662475587	-669.3339233398439	-262.5599670410157	55.13228607177736	-632.1580200195314	-275.0793762207032	58.47283172607423	-595.0960083007814	-325.2821044921876	33.81096649169923	-550.1917114257814	nan	nan	nan	
4	0.015	-140.8923645019532	1719.958374023438	-931.965515136719	-275.2851257324219	1692.066040039063	-959.819519042969	-320.5548706054688	1662.36279296875	-822.8775634765627	-367.3272094726563	1552.935546875	-882.1074218750002	-452.965057373047	1236.348876953125	-878.009216308594	-259.3320312500001	1454.895385742188	-873.5926513671877	-282.8002014160157	1509.6123046875	-1049.549438476563	-351.9674377441407	1385.756225585938	-1206.595336914063	-343.3277587890626	1337.290771484375	-1198.894775390625	-377.2271423339844	1336.424560546875	-1249.040771484375	-408.9748840332032	1292.424438476563	-1290.980834960938	-476.9438781738282	1297.364624023438	-1255.139770507813	-428.1754150390626	1066.25732421875	-1106.119140625	-374.1495666503907	1036.83447265625	-1150.833984375	-381.9106140136719	1076.482788085938	-1059.673583984375	-302.3147888183594	1496.029663085938	-701.6445922851564	-425.6795349121095	1409.957153320313	-556.9047851562501	-409.2308349609376	1363.014526367188	-547.5643310546876	-457.2744750976564	1367.103149414063	-511.4846191406251	-478.1770935058595	1309.812744140625	-472.8435974121095	-541.5859375000001	1297.028564453125	-529.0802612304689	-412.5018615722657	1091.50341796875	-646.4933471679689	-379.3469543457032	1059.784423828125	-586.1451416015626	-357.9436340332032	1093.715209960938	-686.6361083984376	-294.7960510253907	1035.61083984375	-971.7405395507815	-304.7792358398438	1032.59033203125	-750.1026000976564	-480.3289794921876	1101.361206054688	-869.1728515625002	-488.9770812988282	1072.608520507813	-896.507751464844	-496.0753173828126	1072.69677734375	-842.2019042968752	-428.3698730468751	803.0474243164065	-1070.422241210938	-389.4429626464845	730.6179199218751	-1090.394409179688	-342.8311157226563	735.5382690429689	-1091.929809570313	-410.0801391601564	675.2047119140626	-1083.88720703125	-386.6732482910157	544.4016723632814	-1098.499145507813	-382.4956665039063	500.5725708007814	-972.9367675781252	-348.6503601074219	317.5180969238282	-1101.340454101563	-420.052215576172	285.4571228027344	-1143.739624023438	-377.3223876953126	276.9023437500001	-1134.0205078125	-364.4638977050782	192.9415435791016	-1112.56787109375	-427.8066711425782	101.4409408569336	-1140.254150390625	-389.4004516601564	107.1071701049805	-1058.66259765625	-479.4372558593751	43.05556106567384	-1097.008056640625	-255.6254119873047	59.3165855407715	-1097.889404296875	-262.4945068359376	57.60879135131837	-1144.293701171875	-312.0582580566407	31.13832092285157	-1187.952880859375	-396.543914794922	794.709899902344	-653.1488647460939	-363.2505493164063	736.9860839843751	-644.1845703125001	-330.8869323730469	736.0020751953126	-648.1190185546876	-395.9722290039064	659.2722167968751	-651.5384521484376	-390.8862609863282	526.4259643554689	-643.1290893554689	-372.8084411621094	500.3672180175782	-772.6299438476565	-352.2511291503907	336.9280090332032	-634.8805541992189	-430.7745971679689	269.0913085937501	-610.3173217773439	-385.8247680664064	260.9127197265626	-611.6500244140626	-369.5311889648438	209.6783905029297	-637.9750366210939	-432.7205505371095	101.9598541259766	-609.8543090820314	-400.6473999023439	104.1883163452149	-694.1253051757814	-484.0445861816407	47.66666412353516	-669.2546997070314	-262.8631896972657	56.3505325317383	-632.8319091796876	-275.1857604980469	58.47784805297853	-595.1119995117189	-325.2865600585938	33.78536987304688	-550.1718750000001	nan	nan	nan	
